<svg width="32" height="33" viewBox="0 0 32 33" fill="none" xmlns="http://www.w3.org/2000/svg">
<g id="GithubLogo">
<g clip-path="url(#clip0_1_57)">
<path id="Vector" d="M26.0387 10.03C26.3444 9.04397 26.4425 8.00533 26.3267 6.97954C26.211 5.95376 25.8839 4.96308 25.3662 4.06998C25.2785 3.91793 25.1522 3.79167 25.0001 3.7039C24.8481 3.61613 24.6756 3.56994 24.5 3.56998C23.3352 3.56754 22.186 3.83756 21.1442 4.35846C20.1024 4.87936 19.1969 5.6367 18.5 6.56998H15.5C14.8031 5.6367 13.8976 4.87936 12.8558 4.35846C11.814 3.83756 10.6648 3.56754 9.5 3.56998C9.32443 3.56994 9.15193 3.61613 8.99987 3.7039C8.84781 3.79167 8.72154 3.91793 8.63375 4.06998C8.11606 4.96308 7.78903 5.95376 7.67329 6.97954C7.55754 8.00533 7.65559 9.04397 7.96125 10.03C7.34341 11.1084 7.01245 12.3272 7 13.57V14.57C7.0021 16.262 7.61634 17.8961 8.72928 19.1705C9.84222 20.445 11.3787 21.2737 13.055 21.5037C12.3708 22.3793 11.9994 23.4588 12 24.57V25.57H9C8.20435 25.57 7.44129 25.2539 6.87868 24.6913C6.31607 24.1287 6 23.3656 6 22.57C6 21.9134 5.87067 21.2632 5.6194 20.6566C5.36812 20.0499 4.99983 19.4987 4.53553 19.0344C4.07124 18.5702 3.52005 18.2019 2.91342 17.9506C2.30679 17.6993 1.65661 17.57 1 17.57C0.734784 17.57 0.48043 17.6753 0.292893 17.8629C0.105357 18.0504 0 18.3048 0 18.57C0 18.8352 0.105357 19.0895 0.292893 19.2771C0.48043 19.4646 0.734784 19.57 1 19.57C1.79565 19.57 2.55871 19.886 3.12132 20.4487C3.68393 21.0113 4 21.7743 4 22.57C4 23.8961 4.52678 25.1678 5.46447 26.1055C6.40215 27.0432 7.67392 27.57 9 27.57H12V29.57C12 29.8352 12.1054 30.0896 12.2929 30.2771C12.4804 30.4646 12.7348 30.57 13 30.57C13.2652 30.57 13.5196 30.4646 13.7071 30.2771C13.8946 30.0896 14 29.8352 14 29.57V24.57C14 23.7743 14.3161 23.0113 14.8787 22.4487C15.4413 21.886 16.2044 21.57 17 21.57C17.7956 21.57 18.5587 21.886 19.1213 22.4487C19.6839 23.0113 20 23.7743 20 24.57V29.57C20 29.8352 20.1054 30.0896 20.2929 30.2771C20.4804 30.4646 20.7348 30.57 21 30.57C21.2652 30.57 21.5196 30.4646 21.7071 30.2771C21.8946 30.0896 22 29.8352 22 29.57V24.57C22.0006 23.4588 21.6292 22.3793 20.945 21.5037C22.6213 21.2737 24.1578 20.445 25.2707 19.1705C26.3837 17.8961 26.9979 16.262 27 14.57V13.57C26.9875 12.3272 26.6566 11.1084 26.0387 10.03ZM25 14.57C25 15.8961 24.4732 17.1678 23.5355 18.1055C22.5979 19.0432 21.3261 19.57 20 19.57H14C12.6739 19.57 11.4021 19.0432 10.4645 18.1055C9.52678 17.1678 9 15.8961 9 14.57V13.57C9.01226 12.57 9.31164 11.5946 9.8625 10.76C9.96519 10.6246 10.0317 10.4653 10.0558 10.2972C10.0798 10.129 10.0606 9.95744 10 9.79873C9.73953 9.12697 9.61417 8.41042 9.63112 7.69014C9.64806 6.96985 9.80698 6.25999 10.0988 5.60123C10.9171 5.68927 11.7052 5.96037 12.4046 6.39444C13.104 6.82851 13.6966 7.41442 14.1388 8.10873C14.2288 8.24961 14.3528 8.36565 14.4994 8.44623C14.6459 8.52681 14.8103 8.56936 14.9775 8.56998H19.0212C19.1891 8.56998 19.3543 8.52774 19.5015 8.44713C19.6487 8.36652 19.7733 8.25014 19.8638 8.10873C20.3058 7.41436 20.8985 6.8284 21.5978 6.39433C22.2972 5.96025 23.0853 5.68918 23.9037 5.60123C24.1951 6.26016 24.3536 6.9701 24.3701 7.69039C24.3866 8.41067 24.2609 9.12714 24 9.79873C23.9396 9.95592 23.9193 10.1257 23.9412 10.2927C23.963 10.4597 24.0262 10.6186 24.125 10.755C24.6813 11.5896 24.9851 12.567 25 13.57V14.57Z" fill="#E6E5E5"/>
</g>
</g>
<defs>
<clipPath id="clip0_1_57">
<rect y="0.569977" width="32" height="32" rx="16" fill="white"/>
</clipPath>
</defs>
</svg>
