<svg width="32" height="33" viewBox="0 0 32 33" fill="none" xmlns="http://www.w3.org/2000/svg">
<g id="Monitor">
<path id="Vector" d="M26 5.56998H6C5.20435 5.56998 4.44129 5.88605 3.87868 6.44866C3.31607 7.01127 3 7.77433 3 8.56998V22.57C3 23.3656 3.31607 24.1287 3.87868 24.6913C4.44129 25.2539 5.20435 25.57 6 25.57H26C26.7956 25.57 27.5587 25.2539 28.1213 24.6913C28.6839 24.1287 29 23.3656 29 22.57V8.56998C29 7.77433 28.6839 7.01127 28.1213 6.44866C27.5587 5.88605 26.7956 5.56998 26 5.56998ZM27 22.57C27 22.8352 26.8946 23.0895 26.7071 23.2771C26.5196 23.4646 26.2652 23.57 26 23.57H6C5.73478 23.57 5.48043 23.4646 5.29289 23.2771C5.10536 23.0895 5 22.8352 5 22.57V8.56998C5 8.30476 5.10536 8.05041 5.29289 7.86287C5.48043 7.67533 5.73478 7.56998 6 7.56998H26C26.2652 7.56998 26.5196 7.67533 26.7071 7.86287C26.8946 8.05041 27 8.30476 27 8.56998V22.57ZM21 28.57C21 28.8352 20.8946 29.0895 20.7071 29.2771C20.5196 29.4646 20.2652 29.57 20 29.57H12C11.7348 29.57 11.4804 29.4646 11.2929 29.2771C11.1054 29.0895 11 28.8352 11 28.57C11 28.3048 11.1054 28.0504 11.2929 27.8629C11.4804 27.6753 11.7348 27.57 12 27.57H20C20.2652 27.57 20.5196 27.6753 20.7071 27.8629C20.8946 28.0504 21 28.3048 21 28.57Z" fill="#E6E5E5"/>
</g>
</svg>
