<svg width="33" height="33" viewBox="0 0 33 33" fill="none" xmlns="http://www.w3.org/2000/svg">
<g id="PlusCircle">
<path id="Vector" d="M16.5 3.06998C13.9288 3.06998 11.4154 3.83241 9.27759 5.26087C7.13975 6.68933 5.47351 8.71965 4.48957 11.0951C3.50563 13.4705 3.24819 16.0844 3.7498 18.6062C4.25141 21.1279 5.48953 23.4443 7.30762 25.2624C9.1257 27.0804 11.4421 28.3186 13.9638 28.8202C16.4856 29.3218 19.0995 29.0644 21.4749 28.0804C23.8503 27.0965 25.8807 25.4302 27.3091 23.2924C28.7376 21.1546 29.5 18.6411 29.5 16.07C29.4964 12.6233 28.1256 9.31879 25.6884 6.88161C23.2512 4.44442 19.9467 3.07362 16.5 3.06998ZM16.5 27.07C14.3244 27.07 12.1977 26.4248 10.3887 25.2161C8.57979 24.0074 7.16989 22.2895 6.33733 20.2795C5.50477 18.2695 5.28693 16.0578 5.71137 13.924C6.13581 11.7902 7.18345 9.83018 8.72183 8.2918C10.2602 6.75342 12.2202 5.70578 14.354 5.28134C16.4878 4.8569 18.6995 5.07474 20.7095 5.9073C22.7195 6.73987 24.4375 8.14976 25.6462 9.9587C26.8549 11.7676 27.5 13.8944 27.5 16.07C27.4967 18.9863 26.3367 21.7823 24.2745 23.8445C22.2123 25.9067 19.4164 27.0667 16.5 27.07ZM22.5 16.07C22.5 16.3352 22.3946 16.5895 22.2071 16.7771C22.0196 16.9646 21.7652 17.07 21.5 17.07H17.5V21.07C17.5 21.3352 17.3946 21.5895 17.2071 21.7771C17.0196 21.9646 16.7652 22.07 16.5 22.07C16.2348 22.07 15.9804 21.9646 15.7929 21.7771C15.6054 21.5895 15.5 21.3352 15.5 21.07V17.07H11.5C11.2348 17.07 10.9804 16.9646 10.7929 16.7771C10.6054 16.5895 10.5 16.3352 10.5 16.07C10.5 15.8048 10.6054 15.5504 10.7929 15.3629C10.9804 15.1753 11.2348 15.07 11.5 15.07H15.5V11.07C15.5 10.8048 15.6054 10.5504 15.7929 10.3629C15.9804 10.1753 16.2348 10.07 16.5 10.07C16.7652 10.07 17.0196 10.1753 17.2071 10.3629C17.3946 10.5504 17.5 10.8048 17.5 11.07V15.07H21.5C21.7652 15.07 22.0196 15.1753 22.2071 15.3629C22.3946 15.5504 22.5 15.8048 22.5 16.07Z" fill="#8D8686"/>
</g>
</svg>
